<svg xmlns="http://www.w3.org/2000/svg" viewBox="0 0 18.73 17.63"><defs><style>.cls-1{fill:#4e6d89;}</style></defs><title>back-color_1</title><g id="Layer_2" data-name="Layer 2"><g id="Layer_1-2" data-name="Layer 1"><path class="cls-1" d="M18.25,2.24,16.45.48a1.49,1.49,0,0,0-2-.14L5.14,7.2a1.71,1.71,0,0,0-.74,1.47c0,.74,0,1.49,0,2.23a.26.26,0,0,1-.08.21c-.29.29-.6.58-.87.89a1,1,0,0,0,0,1.34c.27.33.59.62.9.92s.68.71,1,1a1,1,0,0,0,1.36,0c.32-.27.6-.59.9-.88a.22.22,0,0,1,.17-.07h2.3a1.71,1.71,0,0,0,1.45-.73l2.53-3.41,4.32-5.85A1.57,1.57,0,0,0,18.25,2.24Zm-2,1.29-5.31,7.22s-.05.12-.14,0L7.92,7.92l0,0,1.41-1,5.88-4.32c.09-.06.13-.06.2,0l.83.83C16.27,3.42,16.28,3.46,16.23,3.53Z"/><path class="cls-1" d="M2,17.63H.9a.84.84,0,0,1-.9-.87A1,1,0,0,1,.3,16c.68-.67,1.36-1.35,2-2,.07-.07.1-.08.17,0l2.28,2.28c.07.07.07.1,0,.17l-.95.94a.9.9,0,0,1-.68.28Z"/></g></g></svg>