<svg xmlns="http://www.w3.org/2000/svg" viewBox="0 0 13.38 17.77"><defs><style>.cls-1{fill:#4e6d89;}</style></defs><title>back-color</title><g id="Layer_2" data-name="Layer 2"><g id="Layer_1-2" data-name="Layer 1"><rect class="cls-1" x="0.12" y="15.38" width="13.14" height="2.38" rx="0.52" ry="0.52"/><path class="cls-1" d="M5.44,5H1.73A1.65,1.65,0,0,1,.16,4,1.57,1.57,0,0,1,0,3.32c0-.59,0-1.18,0-1.77A1.68,1.68,0,0,1,1.47,0l.37,0h7.3a1.69,1.69,0,0,1,1.63,1.13,1.85,1.85,0,0,1,.1.61q0,.77,0,1.53A1.68,1.68,0,0,1,9.45,5a1.72,1.72,0,0,1-.33,0Z"/><path class="cls-1" d="M9,7.52H7.16A.42.42,0,0,0,6.69,8s0,0,0,0a.78.78,0,0,0,0,.3c0,.09.18,0,.27.08a.8.8,0,0,1,.54.68c0,.11,0,.22,0,.34q0,1.52,0,3a1,1,0,0,1-.15.58.81.81,0,0,1-.69.33H5a.79.79,0,0,1-.84-.81s0-.06,0-.09q0-1.6,0-3.2a.85.85,0,0,1,.31-.73.78.78,0,0,1,.45-.17c.07,0,.09,0,.08-.1a3.27,3.27,0,0,1,.08-.91A2,2,0,0,1,6.73,5.89a3.55,3.55,0,0,1,.54,0h3.54a.84.84,0,0,0,.73-.33.92.92,0,0,0,.16-.57q0-1.5,0-3c0-.11,0-.11.1-.07a2.39,2.39,0,0,1,1.54,2,5.59,5.59,0,0,1,0,1.63,2.35,2.35,0,0,1-.71,1.31,2.5,2.5,0,0,1-1.79.7Z"/></g></g></svg>