<svg xmlns="http://www.w3.org/2000/svg" viewBox="0 0 36.23 18.51"><defs><style>.cls-1{fill:#8199aa;}</style></defs><title>fly logo</title><g id="Layer_2" data-name="Layer 2"><g id="Layer_1-2" data-name="Layer 1"><path class="cls-1" d="M10.8,17a1.54,1.54,0,0,1-2.63,1.09A1.49,1.49,0,0,1,7.71,17V15.42H1.54A1.49,1.49,0,0,1,.45,15,1.49,1.49,0,0,1,0,13.88V12.71a1.9,1.9,0,0,1,0-.38A2.53,2.53,0,0,1,.15,12l6-12H9.59q-2,3.95-5.87,11.77a.34.34,0,0,0,0,.38.37.37,0,0,0,.34.19H9.25a1.54,1.54,0,0,1,1.54,1.54V17Zm-.45-6.62a1.45,1.45,0,0,1-.53.34,1.42,1.42,0,0,1-.56.11,1.7,1.7,0,0,1-.6-.11,1.14,1.14,0,0,1-.49-.34,1.14,1.14,0,0,1-.34-.49,1.71,1.71,0,0,1-.11-.6,1.42,1.42,0,0,1,.11-.56,1.46,1.46,0,0,1,.34-.53,1.88,1.88,0,0,1,.49-.34,1.7,1.7,0,0,1,.6-.11,1.42,1.42,0,0,1,.56.11,2.73,2.73,0,0,1,.53.34,1.81,1.81,0,0,1,.3.53,1.13,1.13,0,0,1,.15.56,1.35,1.35,0,0,1-.15.6A1.34,1.34,0,0,1,10.35,10.34Z"/><path class="cls-1" d="M15.73,2.63a1.58,1.58,0,0,1-.49.34A1.66,1.66,0,0,1,14,3a1.56,1.56,0,0,1-.49-.34,1.14,1.14,0,0,1-.34-.49,1.71,1.71,0,0,1-.11-.6A1.62,1.62,0,0,1,13.21,1a1.46,1.46,0,0,1,.34-.53A2,2,0,0,1,14,.15a1.28,1.28,0,0,1,1.2,0,2,2,0,0,1,.49.3,2.75,2.75,0,0,1,.34.53,1.62,1.62,0,0,1,.11.56,1.71,1.71,0,0,1-.11.6A1.87,1.87,0,0,1,15.73,2.63ZM20.8,6.17a1.54,1.54,0,0,1,1.54,1.54v6.17a1.54,1.54,0,1,1-3.08,0V9.25H13.09V6.17H20.8Zm1.09-3.54a1.47,1.47,0,0,1-.53.34,1.42,1.42,0,0,1-.56.11A1.7,1.7,0,0,1,20.2,3a1.14,1.14,0,0,1-.49-.34,1.14,1.14,0,0,1-.34-.49,1.71,1.71,0,0,1-.11-.6A1.62,1.62,0,0,1,19.37,1a1.47,1.47,0,0,1,.34-.53,1.35,1.35,0,0,1,.49-.3A1.34,1.34,0,0,1,20.8,0a1.13,1.13,0,0,1,.56.15,1.81,1.81,0,0,1,.53.3,2.76,2.76,0,0,1,.34.53,1.62,1.62,0,0,1,.11.56,1.71,1.71,0,0,1-.11.6A1.88,1.88,0,0,1,21.89,2.63Z"/><path class="cls-1" d="M36.23,9.25q-.41,1.66-1.24,5a1.5,1.5,0,0,1-.56.83,1.45,1.45,0,0,1-.94.34H27a1.54,1.54,0,1,1,0-3.08h5.3q.26-1,.75-3.08H27a1.54,1.54,0,0,1-1.54-1.54V0h3.08V6.17h7.71V9.25Zm-2-6.62a1.47,1.47,0,0,1-.53.34,1.42,1.42,0,0,1-.56.11,1.7,1.7,0,0,1-.6-.11,1.14,1.14,0,0,1-.49-.34,1.14,1.14,0,0,1-.34-.49,1.71,1.71,0,0,1-.11-.6A1.62,1.62,0,0,1,31.71,1a1.47,1.47,0,0,1,.34-.53,1.35,1.35,0,0,1,.49-.3,1.34,1.34,0,0,1,.6-.15,1.13,1.13,0,0,1,.56.15,1.81,1.81,0,0,1,.53.3,2.76,2.76,0,0,1,.34.53,1.62,1.62,0,0,1,.11.56,1.71,1.71,0,0,1-.11.6A1.88,1.88,0,0,1,34.23,2.63Z"/></g></g></svg>