<svg xmlns="http://www.w3.org/2000/svg" viewBox="0 0 945.21 630.89"><defs><style>.cls-1{fill:#4e6d89;}</style></defs><title>h1</title><g id="Layer_2" data-name="Layer 2"><g id="Layer_1-2" data-name="Layer 1"><path class="cls-1" d="M0,315Q0,184.71,0,54.47C0,36,6.06,20.49,21.56,9.65,49-9.55,99.4.21,104.49,46.27A96,96,0,0,1,105,56.75q0,100.24-.07,200.49c0,4.26.67,5.84,5.5,5.83q152.24-.25,304.48,0c4.09,0,5.22-.88,5.21-5.12q-.22-102-.12-204c0-18.74,6.38-34.47,22.45-44.79,17.81-11.43,37-12,55.64-2.61,17.75,8.89,26,24.52,26.86,44.19.07,1.66.05,3.33.05,5q0,259.74.06,519.47c0,16.43-4,31.16-16.75,42.17-17.34,15-37.46,17-58,8.6-20-8.16-30-24.66-30.15-46-.39-68.66-.23-137.33,0-206,0-5.16-1.37-6.13-6.25-6.12q-151.49.23-303,0c-4.65,0-6,.85-6,5.83.19,67.33.09,134.66.16,202C105.08,596.59,97.92,614,79,624,45.67,641.55,0,623.74,0,577.44Q.07,446.2,0,315Z"/><path class="cls-1" d="M734.87,138.32c-9,4.48-17.55,8.77-26.14,13-25.16,12.52-54.25,5.2-70.47-17.74-11.83-16.73-9.82-44.36,4.43-61.5A60,60,0,0,1,662.1,56.69q49.93-25,99.91-50c25.68-12.79,55.52-4.84,70.78,18.83,4.52,7,6.48,14.89,7,23.14.2,3,.19,6,.19,9q0,231-.11,462c0,4.77,1,6,5.88,5.94q24.74-.5,49.49,0c22.19.47,40.73,14.31,47.07,34.54,9.23,29.48-4.49,58.45-32.12,67.69a51,51,0,0,1-16.2,2.58c-71,0-142,.15-213,0-23.33-.06-42.26-14.18-48.64-35.25-7.17-23.71.74-47.91,20.06-61.12,8.51-5.82,18.12-8.32,28.28-8.44,16.83-.2,33.66-.16,50.5,0,3.08,0,3.86-.75,3.86-3.85Q735,331.45,735,141.21C735,140.42,734.94,139.64,734.87,138.32Z"/></g></g></svg>