<svg xmlns="http://www.w3.org/2000/svg" viewBox="0 0 839.82 504.16"><defs><style>.cls-1{fill:#4e6d89;}</style></defs><title>h3</title><g id="Layer_2" data-name="Layer 2"><g id="Layer_1-2" data-name="Layer 1"><path class="cls-1" d="M0,252.14Q0,149.4,0,46.66C0,38.81.47,31,3.81,23.72c11-24.16,39-28,57-19.54,17.61,8.27,23.35,23.35,23.32,41.71-.08,52.83,0,105.65-.16,158.48,0,4.89,1.25,5.89,6,5.88q120.23-.24,240.47,0c4.42,0,5.76-.92,5.75-5.59C335.93,151.82,336,99,336,46.17c0-7.68.44-15.35,3.81-22.44C348.6,5.2,368.89-3.85,389.27,1.55,409,6.78,419.39,21.05,420,43.9c0,.83,0,1.67,0,2.5q0,205.72,0,411.44c0,12.31-2.13,23.74-10.8,33.29-10.72,11.81-30,16.17-47,10.28-14.41-5-24.82-19-25.77-34.81-1-16.48-.38-33-.42-49.47q-.16-59,.07-118c0-4.26-1.15-5.11-5.23-5.1q-120.73.19-241.47,0c-4.26,0-5.5.85-5.49,5.35q.27,79.24.1,158.48c0,7.84-.38,15.67-3.91,22.91-7.67,15.68-20.71,23-37.72,23.29-20.67.37-36.15-11.68-41.15-31.57C0,467.46,0,462.26,0,457.11Q0,354.62,0,252.14Z"/><path class="cls-1" d="M674.79,84.14h-4.87q-69.75,0-139.5,0c-12.63,0-24.68-1.58-34.28-10.79-13.67-13.12-16-29.29-10.42-46.42C490.65,11.74,502.07,3.12,518,.83a70.52,70.52,0,0,1,10-.67q123-.05,246,0c16.41,0,29.74,6,39,20.12,10.79,16.46,7.51,39-7.5,53.78Q748.07,130.53,691,187.27c-.34.34-.62.74-1.42,1.71,9.17,1.32,18,2,26.65,3.9,36.56,7.94,66.34,26.77,89.9,55.57,43.09,52.68,44.73,133.84,5.93,188.23-26.44,37.06-62.22,59.3-107.59,65.56a221.74,221.74,0,0,1-30.89,1.91c-24.67-.06-49.33,0-74,0-56.4-.15-101.76-37.35-114.4-92.31-3.48-15.12-1.47-28.08,7.75-39.7,12.53-15.81,33.95-19.34,51.87-10,11,5.73,17.28,14.46,20.09,26.4a73.21,73.21,0,0,0,6.33,16.62c5.46,10.56,15.16,14.82,26.45,14.92,28.83.26,57.71,1.08,86.49-.19,49.64-2.19,74.15-39.46,71.31-80-2.37-34-29.57-61.46-64-65.75a126.91,126.91,0,0,0-15.95-1q-43,.07-86,0c-15.1-.05-27.61-5.67-36.28-18.39-12.23-18-9.59-39.64,6.74-55.82Q615.34,144,670.86,89.22c1.42-1.4,2.94-2.69,4.42-4Z"/></g></g></svg>