<svg xmlns="http://www.w3.org/2000/svg" viewBox="0 0 18.63 20.26"><defs><style>.cls-1{fill:#f8f8f8;}</style></defs><title>ol dark</title><g id="Layer_2" data-name="Layer 2"><g id="Layer_1-2" data-name="Layer 1"><path class="cls-1" d="M12.4,3.84c-1.56,0-3.12,0-4.68,0-.9,0-1.58-.26-1.56-1.28s.74-1.23,1.62-1.23q4.6,0,9.2,0c.87,0,1.63.2,1.65,1.21s-.78,1.32-1.71,1.3C15.41,3.83,13.9,3.84,12.4,3.84Z"/><path class="cls-1" d="M12.29,11.35H7.61c-.85,0-1.44-.32-1.45-1.24s.56-1.27,1.42-1.27h9.51c.9,0,1.58.32,1.54,1.32s-.68,1.2-1.51,1.19Z"/><path class="cls-1" d="M12.27,18.86H7.59c-.86,0-1.43-.34-1.43-1.26s.59-1.25,1.44-1.25h9.51c.83,0,1.48.28,1.52,1.18S18,18.87,17.1,18.87Z"/><path class="cls-1" d="M2.28.51V4.58a.47.47,0,0,1-.51.51.46.46,0,0,1-.5-.51V1.22L.8,1.43a.55.55,0,0,1-.23.05A.47.47,0,0,1,.11,1,.46.46,0,0,1,.42.57L1.54.06A.83.83,0,0,1,1.8,0,.5.5,0,0,1,2.28.51Z"/><path class="cls-1" d="M3.66,12.14a.47.47,0,0,1-.49.48H.5a.5.5,0,0,1-.5-.5.53.53,0,0,1,.21-.42l1.5-1.27c.55-.47.74-.77.74-1.17a.66.66,0,0,0-.68-.72.66.66,0,0,0-.68.62c0,.07,0,.15,0,.22a.49.49,0,0,1-.5.44.5.5,0,0,1-.5-.49A1.3,1.3,0,0,1,.08,9,1.67,1.67,0,0,1,1.8,7.61a1.59,1.59,0,0,1,1.68,1.6c0,.64-.32,1.16-1.17,1.87l-.7.59H3.17A.47.47,0,0,1,3.66,12.14Z"/><path class="cls-1" d="M3.57,18.57a1.74,1.74,0,0,1-1.85,1.7,2,2,0,0,1-1.61-.8A.49.49,0,0,1,0,19.19a.46.46,0,0,1,.46-.45.4.4,0,0,1,.33.15,1.09,1.09,0,0,0,.87.45.77.77,0,0,0,.86-.76c0-.46-.35-.71-1-.71H1.39a.45.45,0,0,1-.47-.46A.5.5,0,0,1,1.16,17l.91-.83H.66a.45.45,0,1,1,0-.91H3a.5.5,0,0,1,.5.5.52.52,0,0,1-.22.42l-1,.89A1.49,1.49,0,0,1,3.57,18.57Z"/></g></g></svg>