<svg xmlns="http://www.w3.org/2000/svg" viewBox="0 0 13.14 17.83"><defs><style>.cls-1{fill:#f8f8f8;}</style></defs><title>text-color-dark</title><g id="Layer_2" data-name="Layer 2"><g id="Layer_1-2" data-name="Layer 1"><path class="cls-1" d="M12.45,12.23a1.27,1.27,0,0,1-1.3,1.28,1.35,1.35,0,0,1-1.26-.95l-.55-1.34H3.82l-.55,1.34A1.31,1.31,0,0,1,2,13.51,1.29,1.29,0,0,1,.69,12.23a2.21,2.21,0,0,1,.16-.71L5.32.91a1.33,1.33,0,0,1,2.53,0l4.44,10.61A1.8,1.8,0,0,1,12.45,12.23ZM4.69,9H8.44L6.58,3.93Z"/><rect class="cls-1" y="15.44" width="13.14" height="2.38" rx="0.52" ry="0.52"/></g></g></svg>